<mxfile host="app.diagrams.net" agent="Mozilla/5.0 (Windows NT 10.0; Win64; x64) AppleWebKit/537.36 (KHTML, like Gecko) Chrome/138.0.0.0 Safari/537.36" version="28.0.1">
  <diagram name="Sayfa -1" id="_ZeXvcMI_cfnPz5as4lb">
    <mxGraphModel dx="1042" dy="562" grid="1" gridSize="10" guides="1" tooltips="1" connect="1" arrows="1" fold="1" page="1" pageScale="1" pageWidth="827" pageHeight="1169" math="0" shadow="0">
      <root>
        <mxCell id="0" />
        <mxCell id="1" parent="0" />
        <mxCell id="gCmCnOL7LZh9ZUxc5c8R-3" value="" style="endArrow=classic;html=1;rounded=0;exitX=0.5;exitY=1;exitDx=0;exitDy=0;" parent="1" edge="1">
          <mxGeometry width="50" height="50" relative="1" as="geometry">
            <mxPoint x="310" y="120" as="sourcePoint" />
            <mxPoint x="310" y="170" as="targetPoint" />
          </mxGeometry>
        </mxCell>
        <mxCell id="2DfNc2m29HMde67wbuNO-3" value="" style="edgeStyle=orthogonalEdgeStyle;rounded=0;orthogonalLoop=1;jettySize=auto;html=1;" edge="1" parent="1" source="gCmCnOL7LZh9ZUxc5c8R-4" target="gCmCnOL7LZh9ZUxc5c8R-47">
          <mxGeometry relative="1" as="geometry" />
        </mxCell>
        <mxCell id="gCmCnOL7LZh9ZUxc5c8R-4" value="sum = 0&lt;div&gt;i = 0&lt;/div&gt;" style="rounded=0;whiteSpace=wrap;html=1;" parent="1" vertex="1">
          <mxGeometry x="250" y="170" width="120" height="60" as="geometry" />
        </mxCell>
        <mxCell id="gCmCnOL7LZh9ZUxc5c8R-22" value="start" style="ellipse;whiteSpace=wrap;html=1;" parent="1" vertex="1">
          <mxGeometry x="250" y="40" width="120" height="80" as="geometry" />
        </mxCell>
        <mxCell id="2DfNc2m29HMde67wbuNO-10" style="edgeStyle=orthogonalEdgeStyle;rounded=0;orthogonalLoop=1;jettySize=auto;html=1;exitX=0.5;exitY=1;exitDx=0;exitDy=0;entryX=0.5;entryY=0;entryDx=0;entryDy=0;" edge="1" parent="1" source="gCmCnOL7LZh9ZUxc5c8R-24" target="gCmCnOL7LZh9ZUxc5c8R-33">
          <mxGeometry relative="1" as="geometry" />
        </mxCell>
        <mxCell id="gCmCnOL7LZh9ZUxc5c8R-24" value="print&amp;nbsp;&lt;span style=&quot;background-color: transparent; color: light-dark(rgb(0, 0, 0), rgb(255, 255, 255));&quot;&gt;sum&lt;/span&gt;" style="shape=parallelogram;perimeter=parallelogramPerimeter;whiteSpace=wrap;html=1;fixedSize=1;" parent="1" vertex="1">
          <mxGeometry x="250" y="670" width="120" height="60" as="geometry" />
        </mxCell>
        <mxCell id="gCmCnOL7LZh9ZUxc5c8R-33" value="exit" style="ellipse;whiteSpace=wrap;html=1;" parent="1" vertex="1">
          <mxGeometry x="250" y="770" width="120" height="80" as="geometry" />
        </mxCell>
        <mxCell id="2DfNc2m29HMde67wbuNO-2" value="" style="edgeStyle=orthogonalEdgeStyle;rounded=0;orthogonalLoop=1;jettySize=auto;html=1;" edge="1" parent="1" source="gCmCnOL7LZh9ZUxc5c8R-36" target="gCmCnOL7LZh9ZUxc5c8R-46">
          <mxGeometry relative="1" as="geometry">
            <Array as="points">
              <mxPoint x="210" y="570" />
            </Array>
          </mxGeometry>
        </mxCell>
        <mxCell id="gCmCnOL7LZh9ZUxc5c8R-36" value="sum += i" style="rounded=0;whiteSpace=wrap;html=1;" parent="1" vertex="1">
          <mxGeometry x="150" y="418" width="120" height="60" as="geometry" />
        </mxCell>
        <mxCell id="gCmCnOL7LZh9ZUxc5c8R-44" value="FALSE" style="text;html=1;align=center;verticalAlign=middle;resizable=0;points=[];autosize=1;strokeColor=none;fillColor=none;" parent="1" vertex="1">
          <mxGeometry x="320" y="388" width="60" height="30" as="geometry" />
        </mxCell>
        <mxCell id="2DfNc2m29HMde67wbuNO-6" style="edgeStyle=orthogonalEdgeStyle;rounded=0;orthogonalLoop=1;jettySize=auto;html=1;exitX=0.5;exitY=1;exitDx=0;exitDy=0;entryX=0.5;entryY=0;entryDx=0;entryDy=0;" edge="1" parent="1" source="gCmCnOL7LZh9ZUxc5c8R-46" target="gCmCnOL7LZh9ZUxc5c8R-24">
          <mxGeometry relative="1" as="geometry" />
        </mxCell>
        <mxCell id="2DfNc2m29HMde67wbuNO-8" style="edgeStyle=orthogonalEdgeStyle;rounded=0;orthogonalLoop=1;jettySize=auto;html=1;exitX=1;exitY=0.5;exitDx=0;exitDy=0;entryX=0.5;entryY=1;entryDx=0;entryDy=0;" edge="1" parent="1" source="gCmCnOL7LZh9ZUxc5c8R-46" target="2DfNc2m29HMde67wbuNO-7">
          <mxGeometry relative="1" as="geometry" />
        </mxCell>
        <mxCell id="gCmCnOL7LZh9ZUxc5c8R-46" value="i&amp;lt;1000" style="rhombus;whiteSpace=wrap;html=1;" parent="1" vertex="1">
          <mxGeometry x="270" y="530" width="80" height="80" as="geometry" />
        </mxCell>
        <mxCell id="gCmCnOL7LZh9ZUxc5c8R-54" style="edgeStyle=orthogonalEdgeStyle;rounded=0;orthogonalLoop=1;jettySize=auto;html=1;exitX=0;exitY=0.5;exitDx=0;exitDy=0;entryX=0.5;entryY=0;entryDx=0;entryDy=0;" parent="1" source="gCmCnOL7LZh9ZUxc5c8R-47" target="gCmCnOL7LZh9ZUxc5c8R-36" edge="1">
          <mxGeometry relative="1" as="geometry">
            <mxPoint x="180" y="470" as="targetPoint" />
            <Array as="points">
              <mxPoint x="210" y="330" />
            </Array>
          </mxGeometry>
        </mxCell>
        <mxCell id="2DfNc2m29HMde67wbuNO-4" style="edgeStyle=orthogonalEdgeStyle;rounded=0;orthogonalLoop=1;jettySize=auto;html=1;exitX=0.5;exitY=1;exitDx=0;exitDy=0;entryX=0.5;entryY=0;entryDx=0;entryDy=0;" edge="1" parent="1" source="gCmCnOL7LZh9ZUxc5c8R-47" target="gCmCnOL7LZh9ZUxc5c8R-46">
          <mxGeometry relative="1" as="geometry" />
        </mxCell>
        <mxCell id="gCmCnOL7LZh9ZUxc5c8R-47" value="i % 3 == 0 || i % 5 == 0" style="rhombus;whiteSpace=wrap;html=1;" parent="1" vertex="1">
          <mxGeometry x="230" y="280" width="160" height="100" as="geometry" />
        </mxCell>
        <mxCell id="2DfNc2m29HMde67wbuNO-1" value="TRUE" style="text;html=1;align=center;verticalAlign=middle;resizable=0;points=[];autosize=1;strokeColor=none;fillColor=none;" vertex="1" parent="1">
          <mxGeometry x="150" y="340" width="60" height="30" as="geometry" />
        </mxCell>
        <mxCell id="2DfNc2m29HMde67wbuNO-5" value="FALSE" style="text;html=1;align=center;verticalAlign=middle;resizable=0;points=[];autosize=1;strokeColor=none;fillColor=none;" vertex="1" parent="1">
          <mxGeometry x="240" y="620" width="60" height="30" as="geometry" />
        </mxCell>
        <mxCell id="2DfNc2m29HMde67wbuNO-9" style="edgeStyle=orthogonalEdgeStyle;rounded=0;orthogonalLoop=1;jettySize=auto;html=1;exitX=0.5;exitY=0;exitDx=0;exitDy=0;entryX=1;entryY=0.5;entryDx=0;entryDy=0;" edge="1" parent="1" source="2DfNc2m29HMde67wbuNO-7" target="gCmCnOL7LZh9ZUxc5c8R-4">
          <mxGeometry relative="1" as="geometry" />
        </mxCell>
        <mxCell id="2DfNc2m29HMde67wbuNO-7" value="i++" style="rounded=0;whiteSpace=wrap;html=1;" vertex="1" parent="1">
          <mxGeometry x="440" y="300" width="120" height="60" as="geometry" />
        </mxCell>
        <mxCell id="2DfNc2m29HMde67wbuNO-11" value="TRUE" style="text;html=1;align=center;verticalAlign=middle;resizable=0;points=[];autosize=1;strokeColor=none;fillColor=none;" vertex="1" parent="1">
          <mxGeometry x="380" y="570" width="60" height="30" as="geometry" />
        </mxCell>
      </root>
    </mxGraphModel>
  </diagram>
</mxfile>
